<svg xmlns="http://www.w3.org/2000/svg" width="22.582" height="25.549" viewBox="0 0 22.582 25.549">
  <g transform="translate(-102.524)">
    <path id="Path_6" data-name="Path 6" d="M113.815,0l-1.953,3.554a.757.757,0,0,1-.963.325l-1.653-.7.916,5.858a.337.337,0,0,1-.569.291l-2.586-2.513-.395,1.159a.876.876,0,0,1-1.037.564l-2.582-.647.738,3.584a.875.875,0,0,1-.521.985l-.686.278,5.055,4.469A1.336,1.336,0,0,1,108,18.5l-.3,1.332,4.786-.629a.787.787,0,0,1,.889.794l-.121,5.554h1.12L114.253,20a.787.787,0,0,1,.889-.794l4.782.629-.3-1.332a1.353,1.353,0,0,1,.425-1.293l5.051-4.469-1.349-.556.881-4.3-3.354.842-.655-1.914-2.586,2.513a.337.337,0,0,1-.569-.291l.916-5.858-1.653.7a.757.757,0,0,1-.963-.325Z" fill="#eb2d00"/>
  </g>
</svg>
