<svg xmlns="http://www.w3.org/2000/svg" width="335.994" height="335.997" viewBox="0 0 335.994 335.997">
  <g id="noun-check-mark-circle-2864243" transform="translate(-182.003 -111.997)">
    <path id="Path_4" data-name="Path 4" d="M350,112a167.989,167.989,0,1,0,84,22.505A167.977,167.977,0,0,0,350,112Zm0,313.6a145.82,145.82,0,1,1,102.887-42.708A145.572,145.572,0,0,1,350,425.6Z"/>
    <path id="Path_5" data-name="Path 5" d="M316.4,343.17a11.2,11.2,0,0,1-7.84-3.137l-44.8-44.8,15.68-15.9L316.4,316.291l104.16-104.16,15.68,15.9-112,112a11.185,11.185,0,0,1-7.84,3.137Z"/>
  </g>
</svg>
